<?xml version="1.0" standalone="no"?>
<!DOCTYPE svg PUBLIC "-//W3C//DTD SVG 20010904//EN"
 "http://www.w3.org/TR/2001/REC-SVG-20010904/DTD/svg10.dtd">
<svg version="1.0" xmlns="http://www.w3.org/2000/svg"
 width="466.000000pt" height="466.000000pt" viewBox="0 0 466.000000 466.000000"
 preserveAspectRatio="xMidYMid meet">
<metadata>
Created by potrace 1.11, written by Peter Selinger 2001-2013
</metadata>
<g transform="translate(0.000000,466.000000) scale(0.100000,-0.100000)"
fill="#000000" stroke="none">
<path d="M0 2330 l0 -2330 2330 0 2330 0 0 2330 0 2330 -2330 0 -2330 0 0
-2330z m3594 1215 c91 -10 165 -24 215 -41 104 -36 201 -88 201 -108 0 -16
-121 -6 -325 29 -49 8 -133 22 -185 31 -132 22 -530 30 -696 15 -533 -50
-1135 -276 -1554 -583 -24 -18 -53 -36 -62 -40 -10 -4 -18 -12 -18 -17 0 -6
-11 -16 -24 -23 -24 -13 -229 -169 -276 -210 -14 -12 -45 -38 -70 -57 -25 -19
-55 -44 -67 -55 -12 -12 -38 -36 -57 -55 -20 -19 -36 -37 -36 -42 0 -4 -9 -11
-20 -14 -16 -5 -50 -51 -50 -68 0 -14 50 9 55 24 4 11 20 26 36 35 17 8 38 23
48 32 10 9 44 37 75 62 31 25 75 62 98 84 23 21 61 50 83 64 22 14 59 41 82
59 48 39 240 172 293 203 19 11 49 29 65 40 17 11 44 27 62 35 18 8 66 35 106
60 41 25 78 45 83 45 5 0 38 14 74 31 36 17 74 35 85 39 11 5 36 16 55 24 110
49 347 119 550 162 147 32 139 31 245 44 50 7 97 14 105 17 60 20 534 24 650
5 265 -44 414 -96 564 -195 74 -50 105 -89 108 -140 3 -29 0 -32 -32 -37 -19
-4 -46 -2 -59 2 -13 5 -58 15 -100 22 -42 8 -125 29 -186 46 -259 74 -467 103
-740 103 -391 0 -688 -67 -1077 -243 -70 -32 -150 -72 -178 -89 -27 -17 -53
-31 -56 -31 -6 0 -282 -170 -326 -201 -15 -10 -31 -19 -35 -19 -4 0 -39 -29
-78 -65 -38 -36 -73 -65 -77 -65 -5 0 -9 -6 -9 -12 -1 -7 -2 -18 -3 -25 0 -6
-27 -36 -59 -66 -51 -48 -70 -77 -51 -77 4 0 50 35 103 79 81 66 206 157 270
196 9 6 38 24 66 41 27 17 73 45 101 62 28 18 55 32 61 32 5 0 18 9 28 20 10
11 26 20 36 20 10 0 21 5 25 11 6 11 78 45 307 148 26 11 56 21 65 21 10 0 23
5 28 10 6 6 45 19 87 29 41 11 91 24 109 30 54 18 308 64 445 81 184 23 425 7
698 -46 44 -9 123 -24 175 -34 143 -27 284 -91 425 -194 151 -109 258 -200
290 -244 66 -92 118 -194 122 -241 4 -42 1 -50 -37 -93 -23 -27 -49 -48 -58
-48 -10 0 -34 11 -54 25 -20 14 -41 25 -45 25 -4 0 -29 19 -55 43 -118 107
-215 177 -303 217 -143 67 -201 90 -281 111 -44 11 -95 25 -114 30 -162 43
-289 59 -477 60 -302 3 -533 -25 -743 -89 -255 -79 -497 -187 -590 -265 -17
-15 -37 -27 -43 -27 -20 0 -156 -98 -290 -208 -22 -18 -52 -39 -66 -47 -30
-15 -199 -193 -266 -280 -180 -235 -266 -441 -270 -650 -1 -73 -7 -117 -23
-162 -12 -34 -22 -72 -22 -83 0 -64 -98 -202 -203 -288 -108 -88 -320 -202
-375 -202 -32 0 -87 31 -101 59 -11 20 -2 161 20 311 23 157 118 479 154 520
7 8 31 51 55 95 23 44 48 87 55 95 19 22 105 178 105 190 0 21 -20 8 -47 -31
-15 -23 -43 -58 -60 -79 -18 -20 -47 -66 -65 -102 -18 -36 -47 -78 -65 -92
l-32 -27 -12 23 c-8 15 -10 54 -6 127 5 90 12 124 47 221 89 248 85 226 64
376 -4 25 -1 51 6 65 26 49 93 149 101 149 4 0 32 33 62 73 109 144 374 381
607 543 179 124 467 283 630 349 36 14 74 30 85 35 255 118 743 242 1100 279
139 15 588 12 739 -4z m-719 -951 c-22 -8 -76 -17 -120 -20 -44 -2 -85 -7 -92
-9 -7 -2 -15 0 -18 5 -8 14 118 36 215 38 l55 1 -40 -15z m-290 -33 c-13 -11
-96 -31 -131 -31 -44 0 -15 20 42 29 69 12 100 13 89 2z m-1415 -115 c0 -3 -4
-8 -10 -11 -5 -3 -10 -1 -10 4 0 6 5 11 10 11 6 0 10 -2 10 -4z m1905 -31
c148 -21 274 -51 423 -101 142 -48 220 -86 189 -92 -12 -3 -16 -9 -12 -22 3
-10 0 -22 -6 -26 -8 -4 -9 -3 -5 4 11 18 -21 15 -49 -4 -14 -9 -25 -12 -25 -7
0 5 -42 17 -92 27 -51 10 -113 24 -138 32 -249 75 -586 88 -863 33 -146 -29
-368 -102 -461 -151 -10 -5 -109 -56 -218 -111 -110 -56 -208 -107 -218 -112
-37 -22 -105 -70 -108 -77 -2 -4 -43 -36 -90 -70 -48 -34 -145 -120 -217 -190
-116 -114 -155 -145 -155 -120 0 4 27 41 61 82 33 41 67 90 76 107 14 29 30
47 99 104 10 8 44 43 74 78 30 34 87 84 125 110 39 26 102 70 140 96 153 106
195 132 315 193 69 35 157 75 195 89 39 13 84 31 102 39 17 8 38 14 47 14 9 0
24 4 34 9 18 10 205 52 337 76 93 17 282 13 440 -10z m-1845 -1490 c39 -20 62
-66 58 -118 l-3 -42 -54 0 c-52 0 -54 1 -65 35 l-11 35 -76 3 c-89 3 -109 -9
-109 -63 0 -46 19 -55 138 -64 112 -9 165 -29 182 -71 7 -18 11 -63 9 -115 -4
-83 -5 -88 -36 -115 -39 -35 -102 -45 -243 -38 -112 6 -143 19 -166 73 -8 19
-14 53 -14 75 l0 40 60 0 c60 0 60 0 60 -29 0 -49 22 -61 110 -61 92 0 110 11
110 70 0 34 -4 42 -30 55 -16 8 -53 15 -82 15 -160 0 -211 27 -230 121 -20 97
14 177 87 205 52 19 261 12 305 -11z m1475 -4 c39 -22 53 -53 57 -121 l3 -55
-57 -3 c-57 -3 -58 -2 -58 23 0 14 -11 37 -25 50 -21 22 -33 25 -93 25 -54 0
-75 -4 -93 -19 -23 -18 -24 -25 -24 -148 1 -70 4 -140 8 -155 9 -33 37 -43
123 -43 74 0 101 19 106 74 l3 36 55 0 55 0 0 -67 c0 -124 -46 -151 -245 -146
-209 5 -224 24 -225 288 0 196 8 225 68 256 69 36 283 39 342 5z m516 2 c36
-22 59 -73 59 -134 l0 -50 -57 3 c-56 3 -57 3 -64 38 -10 47 -32 60 -107 60
-61 0 -99 -11 -114 -34 -12 -17 -9 -275 2 -296 20 -37 124 -51 185 -26 30 13
35 20 35 48 0 46 15 58 71 58 56 0 65 -15 54 -88 -16 -106 -44 -124 -203 -130
-125 -5 -194 7 -229 40 -32 30 -47 113 -47 268 -1 116 2 141 19 175 37 73 117
98 285 88 51 -2 95 -11 111 -20z m1284 0 c23 -11 41 -30 55 -60 38 -81 37
-339 -2 -419 -24 -50 -69 -67 -191 -72 -248 -10 -288 29 -286 280 1 223 28
272 154 290 78 10 230 0 270 -19z m-2766 1 c58 -23 76 -66 76 -179 0 -159 -27
-184 -206 -194 l-124 -6 -5 -85 -5 -85 -55 0 -55 0 -3 283 -2 282 170 0 c131
0 179 -4 209 -16z m506 -34 l0 -45 -137 -3 -138 -3 0 -64 0 -65 130 0 130 0 0
-45 0 -45 -130 0 -131 0 3 -71 3 -71 125 1 c69 1 131 -3 138 -7 9 -6 12 -25
10 -53 l-3 -44 -195 0 -195 0 -3 283 -2 282 197 -2 198 -3 0 -45z m1215 -58
c0 -60 2 -111 4 -113 2 -2 56 -3 120 -1 l115 3 3 107 3 107 60 0 60 0 0 -280
0 -280 -39 -3 c-22 -2 -50 -1 -63 3 -24 6 -24 7 -22 118 l1 112 -118 0 -119 0
-5 -115 -5 -115 -55 0 -55 0 -3 283 -2 282 60 0 60 0 0 -108z m568 -174 l-3
-283 -39 -3 c-22 -2 -50 -1 -63 2 l-23 6 0 274 c0 150 3 276 7 279 3 4 33 7
65 7 l58 0 -2 -282z"/>
<path d="M457 1700 c-6 -24 18 -28 27 -4 8 22 8 24 -8 24 -7 0 -16 -9 -19 -20z"/>
<path d="M4240 827 c-33 -16 -42 -71 -37 -211 4 -123 8 -129 82 -141 61 -9
134 4 156 26 17 17 19 35 19 157 0 75 -4 142 -8 148 -15 23 -53 34 -119 34
-37 0 -79 -6 -93 -13z"/>
<path d="M1487 833 c-4 -3 -7 -44 -7 -90 l0 -83 93 0 c59 0 97 4 105 12 7 7
12 40 12 80 0 64 -2 69 -26 78 -28 11 -167 14 -177 3z"/>
</g>
</svg>
